<?xml version="1.0" ?>
<svg enable-background="new 0 0 32 32" version="1.1" viewBox="0 0 32 32" xml:space="preserve"
    xmlns="http://www.w3.org/2000/svg"
    xmlns:xlink="http://www.w3.org/1999/xlink">
    <g id="Flat_copy">
        <g>
            <path d="M16-0.01c-8.837,0-16,7.163-16,16c0,8.836,7.163,16,16,16s16-7.164,16-16C32,7.153,24.837-0.01,16-0.01z" fill="#212121"/>
        </g>
        <path d="M24.477,14.334c0.111,0.59,0.171,1.209,0.171,1.854c0,5.044-3.377,8.631-8.476,8.631   c-4.878,0-8.83-3.952-8.83-8.83s3.952-8.83,8.83-8.83c2.384,0,4.376,0.877,5.905,2.301l-2.489,2.489v-0.006   c-0.927-0.883-2.102-1.336-3.416-1.336c-2.914,0-5.281,2.461-5.281,5.375c0,2.913,2.368,5.381,5.281,5.381   c2.644,0,4.442-1.512,4.813-3.587h-4.813v-3.444L24.477,14.334L24.477,14.334z" fill="#ffc107"/>
    </g>
</svg>